<?xml version="1.0" encoding="utf-8"?>
<!-- Generator: Adobe Illustrator 21.0.0, SVG Export Plug-In . SVG Version: 6.00 Build 0)  -->
<svg version="1.1" id="Layer_1" xmlns="http://www.w3.org/2000/svg" xmlns:xlink="http://www.w3.org/1999/xlink" x="0px" y="0px"
	 viewBox="0 0 58 55.7" style="enable-background:new 0 0 58 55.7;" xml:space="preserve">
<style type="text/css">
	.st0{fill:#FFFFFF;}
	.st1{fill:#347CB8;}
	.st2{fill:#A7D1EF;}
	.st3{fill:#2A5081;}
	.st4{fill:#E9EAEB;}
	.st5{fill:none;stroke:#BCC0C4;stroke-width:2;stroke-miterlimit:10;}
	.st6{fill:#FFFFFF;stroke:#2A5082;stroke-width:2;stroke-miterlimit:10;}
	.st7{fill:#A3D4FF;stroke:#2A5082;stroke-width:2;stroke-miterlimit:10;}
	.st8{fill:#347CB8;stroke:#2A5082;stroke-width:2;stroke-miterlimit:10;}
	.st9{fill:none;stroke:#2A5082;stroke-width:2;stroke-miterlimit:10;}
	.st10{fill:#2D7CB9;stroke:#2A5082;stroke-width:2;stroke-miterlimit:10;}
	.st11{fill:#2D7CB9;}
	.st12{fill:#A3D4FF;}
	.st13{fill:none;stroke:#2A5082;stroke-width:2;stroke-linejoin:round;stroke-miterlimit:10;}
	.st14{fill:#FFFFFF;stroke:#2A5082;stroke-width:2;stroke-linejoin:round;stroke-miterlimit:10;}
	.st15{fill:#BBBFC3;}
	.st16{fill:none;stroke:#295182;stroke-width:2;stroke-miterlimit:10;}
	.st17{fill:#A7D1EF;stroke:#295182;stroke-width:2;stroke-miterlimit:10;}
	.st18{fill:#FFFFFF;stroke:#295182;stroke-width:2;stroke-miterlimit:10;}
	.st19{fill:#F4F5F5;}
	.st20{fill:#BBBFC3;stroke:#295182;stroke-width:2;stroke-miterlimit:10;}
	.st21{fill:#295182;}
	.st22{fill:#E8E9EA;}
	.st23{fill:none;stroke:#4D5152;stroke-width:2;stroke-miterlimit:10;}
</style>
<g>
	<g>
		<rect x="1" y="1" class="st0" width="56" height="53.7"/>
	</g>
	<g>
		<path class="st3" d="M58,55.7H0V0h58V55.7z M2,53.7h54V2H2V53.7z"/>
	</g>
	<g>
		<rect x="2" y="8" class="st3" width="54" height="2"/>
	</g>
	<g>
		<rect x="4" y="4" class="st3" width="2" height="2"/>
	</g>
	<g>
		<rect x="8" y="4" class="st3" width="2" height="2"/>
	</g>
	<g>
		<rect x="12" y="4" class="st3" width="2" height="2"/>
	</g>
	<g>
		<rect x="16" y="2" class="st3" width="2" height="6"/>
	</g>
	<g>
		<rect x="20" y="4" class="st3" width="34" height="2"/>
	</g>
	<g>
		<rect x="14" y="14" class="st2" width="8" height="2"/>
	</g>
	<g>
		<rect x="14" y="18" class="st2" width="14" height="2"/>
	</g>
	<g>
		<rect x="14" y="38" class="st2" width="14" height="2"/>
	</g>
	<g>
		<rect x="14" y="22" class="st2" width="14" height="2"/>
	</g>
	<g>
		<rect x="30" y="22" class="st2" width="12" height="2"/>
	</g>
	<g>
		<rect x="20" y="26" class="st2" width="8" height="2"/>
	</g>
	<g>
		<rect x="30" y="26" class="st2" width="18" height="2"/>
	</g>
	<g>
		<rect x="20" y="34" class="st2" width="8" height="2"/>
	</g>
	<g>
		<rect x="30" y="34" class="st2" width="14" height="2"/>
	</g>
	<g>
		<rect x="20" y="30" class="st2" width="8" height="2"/>
	</g>
	<g>
		<rect x="30" y="30" class="st2" width="10" height="2"/>
	</g>
	<g>
		<rect x="14" y="42" class="st2" width="14" height="2"/>
	</g>
	<g>
		<rect x="30" y="42" class="st2" width="12" height="2"/>
	</g>
	<g>
		<rect x="20" y="46" class="st2" width="8" height="2"/>
	</g>
	<g>
		<rect x="30" y="46" class="st2" width="10" height="2"/>
	</g>
	<g>
		<rect x="6" y="14" class="st15" width="4" height="2"/>
	</g>
	<g>
		<rect x="6" y="18" class="st15" width="4" height="2"/>
	</g>
	<g>
		<rect x="6" y="22" class="st15" width="4" height="2"/>
	</g>
	<g>
		<rect x="6" y="26" class="st15" width="4" height="2"/>
	</g>
	<g>
		<rect x="6" y="30" class="st15" width="4" height="2"/>
	</g>
	<g>
		<rect x="6" y="34" class="st15" width="4" height="2"/>
	</g>
	<g>
		<rect x="6" y="38" class="st15" width="4" height="2"/>
	</g>
	<g>
		<rect x="6" y="42" class="st15" width="4" height="2"/>
	</g>
	<g>
		<rect x="6" y="46" class="st15" width="4" height="2"/>
	</g>
</g>
</svg>
