<svg width="32" height="37" viewBox="0 0 32 37" fill="none" xmlns="http://www.w3.org/2000/svg">
<g clip-path="url(#clip0)">
<path fill-rule="evenodd" clip-rule="evenodd" d="M14.6018 25.8272L8.465 36.5271C8.25338 36.8933 7.79048 37.0198 7.42677 36.8067C7.21515 36.6869 7.08951 36.4805 7.05644 36.2541L6.24305 30.6811L1.03867 32.7585C0.648508 32.9116 0.205441 32.7252 0.0533439 32.3324C-0.0392372 32.0993 -0.00617251 31.853 0.11286 31.6532L6.20999 21.02C6.4216 20.6537 6.88451 20.5272 7.24822 20.7403C7.2879 20.7669 7.32757 20.7869 7.36064 20.8202C7.43999 20.8868 7.52596 20.9401 7.61854 20.9733C7.71112 21.0066 7.81032 21.0266 7.91612 21.0266L11.3945 21.0333C11.6789 21.0333 11.9302 21.1931 12.0558 21.4261L13.59 24.2026C13.5966 24.2159 13.6032 24.2359 13.6099 24.2492C13.6231 24.2825 13.6165 24.2692 13.6231 24.2825V24.2892C13.6297 24.2958 13.6231 24.2892 13.6363 24.3158C13.6958 24.4223 13.7686 24.5022 13.8479 24.5688C13.9339 24.6354 14.0331 24.6887 14.1455 24.722C14.5489 24.8418 14.7804 25.2679 14.6613 25.6741C14.6547 25.714 14.6349 25.774 14.6018 25.8272ZM25.8173 21.1465L31.9012 31.7531C32.1129 32.1193 31.9872 32.5854 31.6235 32.7984C31.4119 32.9183 31.1738 32.9316 30.9688 32.845L25.7711 30.7677L24.9577 36.3406C24.8981 36.7601 24.508 37.0464 24.0914 36.9865C23.8401 36.9465 23.6351 36.7934 23.5227 36.5803L17.366 25.8405C17.1544 25.4743 17.28 25.0083 17.6438 24.7952C17.7496 24.7353 17.862 24.702 17.9744 24.6953C18.1133 24.6887 18.2521 24.6421 18.3712 24.5622C18.4902 24.4889 18.5894 24.389 18.6621 24.2625L20.408 21.233C20.5601 20.9733 20.8378 20.8335 21.1222 20.8535L24.2765 20.9001C24.2964 20.9001 24.3162 20.9001 24.336 20.9001H24.3559C24.4352 20.9001 24.5014 20.8934 24.5675 20.8735C24.6336 20.8535 24.6998 20.8269 24.7659 20.7936C25.1362 20.5938 25.5991 20.727 25.7975 21.0999C25.8041 21.1132 25.8107 21.1265 25.8173 21.1465Z" fill="#337AB7"/>
<path d="M15.9966 1.96401L19.0187 0.219542C19.799 -0.23322 20.7976 0.0397687 21.2473 0.832103C21.2671 0.872053 21.287 0.912002 21.3068 0.945293L22.841 3.72179L26.3194 3.72845C27.2188 3.72845 27.9462 4.46086 27.9462 5.36638V5.38636L27.8999 8.67554L30.9088 10.4333C31.6891 10.8861 31.9536 11.8915 31.5039 12.6772C31.4907 12.7038 31.4775 12.7238 31.4577 12.7504L29.8176 15.5136L31.5502 18.5564C31.9999 19.3421 31.7288 20.3475 30.9418 20.8003C30.9022 20.8202 30.8625 20.8402 30.8228 20.8602L28.0652 22.4049L28.0586 25.9071C28.0586 26.8127 27.3312 27.5451 26.4318 27.5451H26.412L23.1452 27.4985L21.3994 30.528C20.9497 31.3137 19.9511 31.58 19.1708 31.1272C19.1444 31.1139 19.1245 31.1006 19.0981 31.0806L16.3537 29.4294L13.3316 31.1738C12.5513 31.6266 11.5527 31.3536 11.103 30.5613C11.0832 30.5213 11.0634 30.4814 11.0435 30.4414L9.50932 27.6649L6.03092 27.6583C5.13156 27.6583 4.40413 26.9259 4.40413 26.0203V26.0004L4.45043 22.7112L1.44154 20.9534C0.661214 20.5006 0.396696 19.4952 0.846376 18.7096C0.859601 18.6829 0.872827 18.6563 0.892666 18.6363L2.53267 15.8731L0.800085 12.8303C0.350405 12.0446 0.621536 11.0392 1.40848 10.5865C1.44815 10.5665 1.48783 10.5465 1.5209 10.5265L4.27849 8.98183L4.2851 5.47958C4.2851 4.57405 5.01252 3.84164 5.91188 3.84164H5.93172L9.19851 3.88825L10.9443 0.858736C11.394 0.0730601 12.3926 -0.193271 13.1729 0.259492C13.1993 0.272808 13.2192 0.286125 13.2456 0.3061L15.9966 1.96401Z" fill="#FCB912"/>
<path d="M31.5505 18.5569L29.818 15.514L31.458 12.7509C31.4712 12.7242 31.491 12.7042 31.5042 12.6776C31.9539 11.8919 31.6894 10.8932 30.9091 10.4338L27.9002 8.67599L27.9465 5.38681V5.36684C27.9465 4.46131 27.2191 3.7289 26.3197 3.7289L22.8413 3.72224L21.3071 0.945744C21.2873 0.905795 21.2674 0.865845 21.2476 0.832554C20.831 0.0934858 19.9316 -0.186162 19.1777 0.146752C19.4819 0.286576 19.7531 0.512957 19.9316 0.825895C19.9514 0.865845 19.9713 0.905795 19.9911 0.939086L21.5253 3.71558L25.0037 3.72224C25.9031 3.72224 26.6305 4.45465 26.6305 5.36018V5.38015L26.5842 8.66934L29.5931 10.4271C30.3734 10.8799 30.638 11.8853 30.1883 12.671C30.1751 12.6976 30.1618 12.7176 30.142 12.7442L28.502 15.514L30.2346 18.5569C30.6842 19.3425 30.4131 20.3479 29.6262 20.8007C29.5865 20.8207 29.5468 20.8407 29.5071 20.8606L26.7495 22.4053L26.7429 25.9076C26.7429 26.7532 26.1015 27.439 25.2815 27.5256L26.4057 27.5455H26.4255C27.3249 27.5455 28.0523 26.8131 28.0523 25.9076L28.0589 22.4053L30.8165 20.8606C30.8562 20.8407 30.8959 20.8207 30.9355 20.8007C31.7291 20.3479 32.0002 19.3492 31.5505 18.5569Z" fill="#E59A1C"/>
<path d="M21.8359 27.499L20.09 30.5285C19.9115 30.8415 19.647 31.0679 19.3428 31.201C20.09 31.5339 20.9828 31.2609 21.406 30.5285L23.1452 27.519L21.8359 27.499Z" fill="#F2A31E"/>
<path d="M23.0133 9.42793C21.4196 7.82329 19.2175 6.83121 16.7906 6.83121C14.357 6.83121 12.1549 7.82329 10.5678 9.42793C8.97408 11.0326 7.98875 13.2498 7.98875 15.6934C7.98875 18.1436 8.97408 20.3608 10.5678 21.9588C12.1615 23.5634 14.3636 24.5555 16.7906 24.5555C19.2175 24.5555 21.4262 23.5634 23.0133 21.9588C24.6071 20.3541 25.5924 18.1369 25.5924 15.6934C25.5924 13.2498 24.6071 11.0326 23.0133 9.42793ZM16.7906 5.2998C19.6407 5.2998 22.2264 6.465 24.0912 8.34263C25.9627 10.2269 27.1134 12.8236 27.1134 15.6934C27.1134 18.5631 25.9561 21.1665 24.0912 23.0441C22.2198 24.9284 19.6407 26.0869 16.7906 26.0869C13.9404 26.0869 11.3547 24.9217 9.48989 23.0441C7.61842 21.1598 6.46777 18.5631 6.46777 15.6934C6.46777 12.8236 7.62504 10.2203 9.48989 8.34263C11.3547 6.45834 13.9338 5.2998 16.7906 5.2998Z" fill="#E59A1C"/>
<path d="M22.4047 9.42793C20.811 7.82329 18.6089 6.83121 16.1819 6.83121C13.755 6.83121 11.5463 7.82329 9.95917 9.42793C8.36546 11.0326 7.38013 13.2498 7.38013 15.6934C7.38013 18.1436 8.36546 20.3608 9.95917 21.9588C11.5529 23.5634 13.755 24.5555 16.1819 24.5555C18.6089 24.5555 20.8176 23.5634 22.4047 21.9588C23.9984 20.3541 24.9838 18.1369 24.9838 15.6934C24.9838 13.2498 23.9984 11.0326 22.4047 9.42793ZM16.1753 5.2998C19.0255 5.2998 21.6112 6.465 23.476 8.34263C25.3475 10.2269 26.4981 12.8236 26.4981 15.6934C26.4981 18.5631 25.3409 21.1665 23.476 23.0441C21.6046 24.9284 19.0255 26.0869 16.1753 26.0869C13.3252 26.0869 10.7395 24.9217 8.87465 23.0441C7.00319 21.1598 5.85254 18.5631 5.85254 15.6934C5.85254 12.8236 7.0098 10.2203 8.87465 8.34263C10.7461 6.45834 13.3252 5.2998 16.1753 5.2998Z" fill="white"/>
<path d="M20.0043 11.0396L18.9198 17.052L17.6038 11.0396H15.6596L14.3899 17.0719L13.193 11.0396H10.9512L13.3318 21.4797H15.3025L16.6383 15.1743L18.0601 21.4797H20.0373L22.2395 11.0396H20.0043Z" fill="#E59A1C"/>
<path d="M19.568 10.813L18.4835 16.8254L17.1675 10.813H15.2233L13.9536 16.8387L12.7567 10.813H10.5215L12.8955 21.2532H14.8662L16.202 14.9478L17.6238 21.2532H19.601L21.8032 10.813H19.568Z" fill="white"/>
</g>
<defs>
<clipPath id="clip0">
<rect width="32" height="37" fill="white"/>
</clipPath>
</defs>
</svg>