<?xml version="1.0" encoding="utf-8"?>
<!-- Generator: Adobe Illustrator 18.0.0, SVG Export Plug-In . SVG Version: 6.00 Build 0)  -->
<!DOCTYPE svg PUBLIC "-//W3C//DTD SVG 1.1//EN" "http://www.w3.org/Graphics/SVG/1.1/DTD/svg11.dtd">
<svg version="1.1" id="Слой_1" xmlns="http://www.w3.org/2000/svg" xmlns:xlink="http://www.w3.org/1999/xlink" x="0px" y="0px"
	 viewBox="0 0 800 800" enable-background="new 0 0 800 800" xml:space="preserve">
<rect fill="#9CB6D1" width="800" height="800"/>
<path fill="#456E8D" d="M103.3,671C74,689,57.8,764.5,53.3,800h313.3l-83.3-200C235.6,616.1,132.7,652.9,103.3,671z"/>
<path fill="#456E8D" d="M696.7,671c29.3,18.1,45.6,93.5,50,129H433.3l83.3-200C564.4,616.1,667.3,652.9,696.7,671z"/>
<path fill="#D2DDEC" d="M360,800l-70-213.3h226.7L443.3,800H360z"/>
<path fill="#ECBE85" d="M303.3,566.7l10-130H400v170L303.3,566.7z M400,606.7l96.7-40l-10-130H400V606.7z"/>
<path fill="#45BDFC" d="M400,603.3c-2.7,2.7-25.6,27.8-36.7,40l20,20L356.7,800h86.7l-26.7-136.7l20-20
	C425.6,631.1,402.7,606,400,603.3z"/>
<path fill="#355A70" d="M243.3,710l73.3,90H360l-70-220l-80,43.3l63.3,46.7L243.3,710z"/>
<path fill="#355A70" d="M556.7,710l-73.3,90H440l70-220l80,43.3L526.7,670L556.7,710z"/>
<path fill="#F5F4F6" d="M283.3,586.7l16.7-30l100,50l-63.3,56.7L283.3,586.7z"/>
<path fill="#F5F4F6" d="M516.7,586.7l-16.7-30l-100,50l63.3,56.7L516.7,586.7z"/>
<path fill="#F6D5A7" d="M276.7,380c8,117.3,85.6,151.1,123.3,153.3v-370H293.3l-46.7,103.3c-3.3,12.2-8.7,44.7-3.3,76.7
	C248.7,375.3,263.3,393.3,276.7,380z"/>
<path fill="#ECBE85" d="M523.3,380c-8,117.3-85.6,151.1-123.3,153.3v-370h106.7l46.7,103.3c3.3,12.2,8.7,44.7,3.3,76.7
	C551.3,375.3,536.7,393.3,523.3,380z"/>
<path fill="#3F3330" d="M564.8,257.5C592.7,124,506.7,94.4,466.7,96.7L460,170c43.3-20,56.7,40,53.3,53.3
	c-3.3,13.3,0.5,25.9,7.2,45.9c5.3,16,6.4,67.2,12,60.3C552.5,304.6,560.9,276,564.8,257.5z"/>
<path fill="#2B211E" d="M397,190.5c-71,62.2-96.7,43.3-110,56.7c-13.3,13.3-13.5,74.9-13.3,76.7c0.7,9.8-7,3.1-25.6-26
	c-12.7-19.7-25.8-43.7-31.8-114.2C212.6,141.4,327,3.8,467,97.1c0,2.7-4.4,50-6.7,73.3C450.3,164.9,423.6,161.1,397,190.5"/>
</svg>
